<svg width="124" height="40" viewBox="0 0 124 40" fill="none" xmlns="http://www.w3.org/2000/svg">
<g opacity="0.5">
<path d="M5.21336 13.3668C8.07685 5.73373 9.65299 2.29048 10.6317 1.53024C11.3486 0.973021 11.6168 0.954609 12.6317 1.39273C14.399 2.15583 14.2715 3.36383 11.7617 9.62741C8.19219 18.5356 7.79773 19.8777 8.64816 20.2154C8.84385 20.2931 10.4457 20.3042 12.208 20.2399C16.4161 20.0866 17.1998 20.4568 17.1209 22.5605C17.0242 23.7676 16.3593 24.1976 15.723 24.3847C15.0868 24.5719 13.0234 24.7866 10.1643 25.1482C4.43636 25.873 3.7119 25.8282 2.8438 24.6952C1.84814 23.3963 2.34897 21.0028 5.21336 13.3668Z" fill="#2B1E6B"/>
<path d="M10.7253 28.6401C10.2218 28.6401 6.85868 28.9252 5.49071 29.0863C4.17055 29.2416 2.30179 29.4206 0.794638 30.1666C-0.460731 31.0071 0.0118858 32.4739 0.578417 32.9924C0.951268 33.3335 2.23213 33.5002 3.27666 33.5002C4.08219 33.5002 5.82354 33.3257 6.85868 33.1917C9.69848 32.7106 12.7701 31.9535 13.3424 31.5818C13.9463 31.1897 14.1469 30.7564 14.1143 30.1421C14.038 28.7022 11.7315 28.6401 10.7253 28.6401Z" fill="#2B1E6B"/>
<path fill-rule="evenodd" clip-rule="evenodd" d="M42.3623 0.292979C41.9689 0.48664 41.5207 0.921348 41.3664 1.25899C40.8223 2.44981 40.6084 6.32462 40.581 15.4967C40.581 15.4967 40.4156 22.9821 40.581 24.1572C40.7463 25.3324 41.0791 25.6114 41.0791 25.6114C42.0997 27.2484 43.8342 27.2194 45.4055 25.5389C47.5652 23.229 56.3359 8.71723 57.3287 5.8107C57.6379 4.90582 57.6525 4.60456 57.4154 4.03365C57.034 3.11571 56.3551 2.67757 55.3135 2.67757C54.0524 2.67757 53.269 3.61566 50.9962 7.84896C47.6241 14.1285 46.3474 15.7238 45.5393 14.6664C45.2664 14.3091 45.2392 13.3795 45.3758 9.08715C45.4661 6.25435 45.5517 3.52454 45.5662 3.02093C45.6049 1.66806 45.0851 0.617578 44.1931 0.245824C43.4346 -0.0703539 42.9631 -0.00280678 42.3623 0.292979ZM81.9812 0.166619C76.7939 0.494651 74.4958 0.981779 73.6028 1.9423C72.6142 3.00561 72.9797 4.9374 74.2581 5.40484C74.5293 5.5042 76.0424 5.45314 77.6203 5.29153C81.3502 4.90925 83.6499 4.89139 84.001 5.24141C84.1525 5.39249 84.276 5.83039 84.276 6.21427C84.2754 7.65507 82.1545 15.466 80.109 21.5602C79.0601 24.6851 78.9805 25.0676 79.2156 25.8508C79.3869 26.4207 79.6995 26.8269 80.1425 27.0555C81.2405 27.6218 81.9456 27.49 82.891 26.5419C83.5923 25.8382 83.9159 25.1679 84.6863 22.822C85.9887 18.8553 87.0671 15.1224 88.1905 10.6895C89.367 6.0474 89.6856 5.22194 90.4056 4.94885C90.7117 4.8328 91.8591 4.73252 92.9555 4.72611C97.4612 4.69955 98.9233 4.24655 99.2969 2.76158C99.4875 2.00434 98.8595 0.754468 98.0938 0.366919C97.3631 -0.00277668 86.7489 -0.13486 81.9812 0.166619ZM27.4279 0.624217C25.6891 1.16514 24.7314 2.82797 23.1465 8.05703C20.8233 15.7224 20.0156 19.4148 19.9815 22.5255C19.9556 24.892 20.425 25.7968 21.9883 26.3922C22.9326 26.752 23.3001 26.762 25.9383 26.5011C30.7961 26.0208 32.1844 25.6946 32.9474 24.8543C33.5121 24.2321 33.5675 23.8559 33.4782 23.1924C33.2854 21.7567 32.8735 21.4124 28.8708 21.4931C28.8708 21.4931 25.5894 21.7868 25.4183 21.5628C25.2472 21.3391 25.1428 20.9905 25.1428 20.9905C24.6748 20.0187 25.399 16.8443 26.1842 16.4252C26.3889 16.3158 27.5368 16.156 28.7347 16.0697C32.6039 15.7916 33.5526 15.3205 33.5526 13.6782C33.5526 13.0661 33.3825 12.5781 33.0248 12.1633C32.5648 11.6299 32.2209 11.5173 30.3525 11.2868C27.4871 10.9336 27.4052 10.8127 28.1642 8.06069C28.9823 5.09559 29.0172 5.07291 32.2336 5.41834C36.2767 5.85283 38.3725 5.23018 38.3725 3.59505C38.3725 1.41557 36.7614 0.706169 31.3723 0.512278C29.5278 0.445893 27.8476 0.493737 27.4279 0.624217ZM120.608 1.63601C120.181 1.82418 119.574 2.42371 119.164 3.06306C118.267 4.46149 114.752 11.4612 113.437 14.4666C112.162 17.3809 111.892 17.7858 111.223 17.7858C110.508 17.7858 110.008 16.7734 109.19 13.6654C106.976 5.25856 106.674 4.5107 105.301 4.05906C104.872 3.9176 104.259 3.86724 103.94 3.94713C102.495 4.3088 102.134 5.79238 102.857 8.4004C103.606 11.1059 105.069 16.8638 106.068 21.0458C106.572 23.1534 107.143 25.1827 107.336 25.5553C107.529 25.928 107.687 26.5214 107.686 26.8737C107.685 27.2263 106.859 29.5655 105.85 32.0721C104.708 34.9069 104.015 36.9503 104.015 37.4778C104.015 39.7968 106.739 40.519 108.076 38.5549C108.621 37.7544 110.225 34.1902 113.199 27.1712C116.415 19.5808 119.284 13.2147 121.449 8.8651C123.181 5.38355 123.524 4.51597 123.524 3.61176C123.524 2.78333 123.402 2.41524 123.008 2.04761C122.301 1.39016 121.484 1.24984 120.608 1.63601ZM66.6488 1.91048C65.6633 2.40196 65.4769 2.79522 64.1069 7.27048C63.4731 9.33986 62.0722 13.6082 60.9931 16.7557C58.6292 23.6506 58.4821 24.9278 59.9639 25.6917C61.7348 26.6052 62.8141 25.7384 64.0228 22.4317C67.9823 11.6015 69.3587 7.17115 69.524 4.72452C69.6123 3.41629 69.524 2.86382 69.0975 2.38685C68.3909 1.59641 67.5905 1.44075 66.6488 1.91048Z" fill="#2B1E6B"/>
</g>
</svg>
